<svg width="500" height="500" viewBox="0 0 500 500" fill="none" xmlns="http://www.w3.org/2000/svg">
    <path
        d="M113.5 382C98.0001 243 167.5 55.5 396.5 8C398.975 47.2319 396.442 68.4206 386 105C363.462 129.691 347.984 141.132 315 157C344.5 149 350 145.5 374.5 140C324 282.5 246.5 285.5 237.445 287C259.5 290.5 262 288 281 285.5C153 416.5 148 305.5 130 479C119.2 484 116.5 485.25 103 491.5C126.5 284 264 142.899 305 112C236 157 150 248.5 113.5 382Z"
        fill="#e05d38" stroke="white" stroke-width="5" stroke-linecap="round" stroke-linejoin="round"/>
</svg>